<svg width="44" height="48" viewBox="0 0 44 48" fill="none" xmlns="http://www.w3.org/2000/svg">
<path d="M23.78 2.41788L39.78 10.4179C40.4464 10.749 41.0073 11.2595 41.3994 11.8919C41.7916 12.5244 41.9996 13.2537 42 13.9978V33.0578C41.9996 33.802 41.7916 34.5313 41.3994 35.1637C41.0073 35.7961 40.4464 36.3066 39.78 36.6378L23.78 44.6378C23.2243 44.9159 22.6115 45.0606 21.99 45.0606C21.3686 45.0606 20.7558 44.9159 20.2001 44.6378L4.20009 36.6378C3.53435 36.3024 2.9756 35.7875 2.58687 35.1514C2.19814 34.5153 1.99491 33.7833 2.0001 33.0378V13.9978C2.00049 13.2537 2.20847 12.5244 2.60065 11.8919C2.99284 11.2595 3.55367 10.749 4.22009 10.4179L20.2201 2.41788C20.7732 2.14303 21.3824 2 22 2C22.6177 2 23.2269 2.14303 23.78 2.41788V2.41788Z" stroke="white" stroke-width="4" stroke-linecap="round" stroke-linejoin="round"/>
<path d="M2.64014 11.8379L22.0001 21.5179L41.36 11.8379" stroke="white" stroke-width="4" stroke-linecap="round" stroke-linejoin="round"/>
<path d="M22 45.038V21.5181" stroke="white" stroke-width="4" stroke-linecap="round" stroke-linejoin="round"/>
<path d="M12 6.51807L32 16.518" stroke="white" stroke-width="4" stroke-linecap="round" stroke-linejoin="round"/>
</svg>
